# xmcd
#
# Track frame offsets:
#	150
#	12249
#	25441
#	35926
#	46748
#	57760
#	70432
#	83344
#	95413
#	108388
#	121987
#	133895
#	145746
#	157528
#	172018
#	185106
#	198356
#	210900
#
# Disc length: 2976
#
# Revision: 1
# Processed by: cddbd v1.5.1PL0 Copyright (c) Steve Scherf et al.
# Submitted via: ExactAudioCopy v0.90b4
# Normalized: r0:DSETVAR1
#
DISCID=f40b9e12
DTITLE=Various Artist - New York City Blues Disc 1
DYEAR=2001
DGENRE=Blues
TTITLE0=Blind Boy Fuller - Good Feeling Blues
TTITLE1=Blind Boy Fuller - Three Ball Blues
TTITLE2=Josh White - Evil Hearted Man #1
TTITLE3=Jordan Webb, Sonny Terry - Touch It Up And Go
TTITLE4=Leadbelly - Good Morning Mr Blues
TTITLE5=Buddy Moss - I'm Sitting Here Tonight
TTITLE6=Buddy Moss - Unfinished Business
TTITLE7=Reverend Gary Davis - I'm Gonna Meet Me At The Station
TTITLE8=Brownie Mcghee - That's The Stuff
TTITLE9=Seth Richard - Broom Street Blues
TTITLE10=Seth Richard - Gas Station Blues
TTITLE11=Louis Hayes - Honey Blues
TTITLE12=Alec Seward - Early Morning Blues
TTITLE13=Alec Seward - Late Evening Blues
TTITLE14=Boy Green - Play My Jukebox
TTITLE15=Boy Green - A and B Blues
TTITLE16=Little Boy Fuller - Bed Spring Blues
TTITLE17=Little Boy Fuller - Down Hearted Man
EXTD=
EXTT0=
EXTT1=
EXTT2=
EXTT3=
EXTT4=
EXTT5=
EXTT6=
EXTT7=
EXTT8=
EXTT9=
EXTT10=
EXTT11=
EXTT12=
EXTT13=
EXTT14=
EXTT15=
EXTT16=
EXTT17=
PLAYORDER=
